PathFileType	4	(X/Y/Z)	S1_rest_fast_left.trc
DataRate	CameraRate	NumFrames	NumMarkers	Units	OrigDataRate	OrigDataStartFrame	OrigNumFrames
250.00	250.00	10	18	mm	250.00	14877	23803
Frame#	Time	c7	r_should	l_should	clavicle	r_upa	r_elb_l	r_elb_m	r_low	r_wri_l	r_wri_m	r_met	l_upa	l_elb_l	l_elb_m	l_low	l_wri_l	l_wri_m	l_met
	X1	Y1	Z1	X2	Y2	Z2	X3	Y3	Z3	X4	Y4	Z4	X5	Y5	Z5	X6	Y6	Z6	X7	Y7	Z7	X8	Y8	Z8	X9	Y9	Z9	X10	Y10	Z10	X11	Y11	Z11	X12	Y12	Z12	X13	Y13	Z13	X14	Y14	Z14	X15	Y15	Z15	X16	Y16	Z16	X17	Y17	Z17	X18	Y18	Z18
14877	59.50400	418.23404	1422.24609	57.16861	487.48535	1354.26257	240.43040	457.31302	1358.87024	-132.61847	551.32941	1296.27539	43.32122	456.84241	1159.64380	312.81949	468.30722	1061.07471	329.55994	399.04883	1035.88306	261.08694	446.81879	929.64978	347.26663	542.82965	860.02234	315.01047	477.32135	832.75403	332.48914	589.77881	780.72321	332.81058	438.40903	1138.64966	-174.65729	441.81992	1063.12122	-191.78378	417.55579	1028.34509	-99.34793	471.30807	915.91559	-173.20586	567.71814	876.59180	-203.83786	543.96307	846.58179	-142.39748	572.89062	811.47113	-231.94891
14878	59.50800	418.18018	1422.26440	57.28797	487.75537	1354.24084	240.41606	456.83023	1358.97852	-132.51360	551.26227	1296.25110	43.24144	457.24988	1159.61633	312.82919	468.79514	1061.06750	329.65747	399.34061	1035.87952	261.20096	447.23618	929.57593	347.24985	543.20636	859.97369	314.79443	477.68466	832.73230	332.42581	590.16211	780.67157	332.52277	437.85065	1138.84729	-174.74284	441.26288	1063.50684	-191.84688	417.09082	1028.51294	-99.54630	471.71152	916.72510	-173.33508	568.46216	878.10864	-204.00209	544.86597	847.89661	-142.61554	574.22974	813.01141	-232.15880
14879	59.51200	418.11862	1422.28442	57.41061	488.01617	1354.22620	240.40819	456.36389	1359.08972	-132.40689	551.17078	1296.23230	43.12560	457.65295	1159.59216	312.82874	469.37433	1061.07751	329.89130	399.63327	1035.86572	261.30365	447.67542	929.52631	347.23630	543.56635	859.93115	314.59879	478.07074	832.70465	332.36505	590.55780	780.62207	332.24661	437.31168	1139.04956	-174.82982	440.72937	1063.88989	-191.93823	416.60175	1028.69031	-99.77996	472.10883	917.50055	-173.54622	569.23535	879.66132	-204.17834	545.82800	849.09442	-142.79941	575.59857	814.64325	-232.38533
14880	59.51600	418.05139	1422.30005	57.53526	488.28061	1354.21216	240.39963	455.88657	1359.21045	-132.30673	551.06390	1296.21973	42.99099	458.03882	1159.54504	312.81271	469.82587	1061.06287	329.94897	399.91949	1035.84546	261.41965	448.12906	929.48737	347.22287	543.93726	859.89319	314.40881	478.49857	832.64246	332.30396	590.96246	780.57135	331.97205	436.79874	1139.25867	-174.91391	440.21042	1064.29211	-192.03790	416.10449	1028.90686	-100.04205	472.52405	918.29138	-173.78711	570.02960	881.23846	-204.35550	546.76367	850.42188	-143.04669	577.00812	816.28741	-232.64290
14881	59.52000	417.97952	1422.30823	57.66584	488.54456	1354.19141	240.38300	455.38815	1359.34167	-132.20906	550.95270	1296.20862	42.86629	458.42108	1159.51355	312.80539	470.24954	1061.04309	329.96368	400.18637	1035.83411	261.53864	448.58411	929.45428	347.21771	544.32129	859.86334	314.22849	478.95889	832.54156	332.22772	591.37396	780.52911	331.69638	436.30093	1139.47937	-174.99605	439.71188	1064.70886	-192.12288	415.63992	1029.11499	-100.30209	472.96970	919.12433	-174.05400	570.85034	882.83667	-204.56230	547.94446	851.65039	-143.59471	578.39978	817.93561	-232.89647
14882	59.52400	417.89780	1422.31677	57.79546	488.80850	1354.16589	240.36911	454.88016	1359.48035	-132.08276	550.77734	1296.22913	42.65664	458.81290	1159.49365	312.81567	470.66348	1061.01746	329.95856	400.45435	1035.83521	261.65564	449.04269	929.43280	347.21768	544.70654	859.85077	314.06302	479.41522	832.45703	332.14413	591.79736	780.49976	331.41281	435.81104	1139.70349	-175.08345	439.23361	1065.12195	-192.21057	415.24048	1029.32666	-100.53903	473.47134	919.95007	-174.35286	571.68378	884.47437	-204.77380	549.36597	852.72784	-144.19766	579.82208	819.64252	-233.17815
14883	59.52800	417.81305	1422.33093	57.92110	489.06503	1354.14819	240.36191	454.36615	1359.62695	-131.95009	550.52979	1296.28052	42.35146	459.19257	1159.46997	312.82846	471.08420	1060.99243	329.94308	400.74973	1035.83545	261.76578	449.55005	929.48126	347.24286	545.09528	859.84515	313.90808	479.86118	832.40857	332.06424	592.24292	780.48370	331.12509	435.31766	1139.94800	-175.19023	438.78287	1065.53442	-192.27934	414.91031	1029.52563	-100.75446	473.99393	920.80927	-174.66327	572.52521	886.12518	-205.00258	550.19696	854.24731	-144.35474	581.29034	821.38702	-233.47098
14884	59.53200	417.72177	1422.34827	58.05374	489.32016	1354.13037	240.35797	453.83597	1359.76917	-131.82047	550.37549	1296.29321	42.18457	459.55014	1159.44873	312.85184	471.42776	1060.95129	329.81927	401.04358	1035.82117	261.88220	450.10281	929.60541	347.28918	545.49603	859.83801	313.74725	480.30688	832.38776	331.98541	592.70654	780.48254	330.83636	434.81400	1140.20410	-175.30722	438.35440	1065.94800	-192.34688	414.02567	1029.90063	-101.10482	474.47806	921.73303	-175.17174	573.54388	888.03778	-205.29636	551.84857	855.26373	-145.11784	582.75861	823.12042	-233.77875
14885	59.53600	417.62445	1422.36023	58.17953	489.56384	1354.11548	240.33932	453.29874	1359.91516	-131.69156	550.23688	1296.30078	42.05595	459.91269	1159.44836	312.88440	471.68277	1060.88245	329.56320	401.32428	1035.82336	262.00986	450.58298	929.63269	347.30750	545.90698	859.83228	313.57074	480.74200	832.38995	331.92075	593.17883	780.49817	330.55759	434.32043	1140.47302	-175.43311	437.93384	1066.36243	-192.42361	412.43512	1030.52148	-101.64523	474.93063	922.65729	-175.93417	574.76117	890.24084	-205.63559	553.07831	856.60590	-145.54350	584.26312	824.87598	-234.10841
14886	59.54000	417.51926	1422.37183	58.30240	489.79993	1354.09705	240.32639	452.78122	1360.07520	-131.55884	550.03845	1296.44397	41.74206	460.27069	1159.43359	312.90771	472.11353	1060.88000	329.60272	401.59851	1035.82874	262.13010	451.04816	929.63910	347.32401	546.32721	859.83386	313.40021	481.17947	832.41272	331.85565	593.65631	780.52594	330.27750	433.83978	1140.73376	-175.54552	437.51282	1066.79858	-192.52168	411.90036	1030.84546	-101.95728	475.46237	923.50092	-176.35995	575.66766	892.02777	-205.90919	554.21173	858.05518	-145.89352	585.79327	826.70166	-234.44664
